<svg id="comado" xmlns="http://www.w3.org/2000/svg" width="35" height="30" viewBox="0 0 35 30">
  <g id="_14" data-name="14">
    <path id="Path_315" data-name="Path 315" d="M32.443,3.209V30H2.849V3.209H1.211A1.277,1.277,0,0,1,0,1.894V1.3A1.268,1.268,0,0,1,1.211,0H33.765A1.268,1.268,0,0,1,35,1.3v.594a1.276,1.276,0,0,1-1.234,1.316ZM16.19,16.978h2.9a.8.8,0,0,1,.728.8v.867a.753.753,0,0,1-.192.561.731.731,0,0,1-.536.241h-2.9a.731.731,0,0,1-.536-.241.753.753,0,0,1-.192-.561v-.875a.8.8,0,0,1,.728-.8Zm0-12.035h2.9a.8.8,0,0,1,.728.8v.842a.8.8,0,0,1-.728.8h-2.9a.8.8,0,0,1-.728-.8V5.721a.8.8,0,0,1,.728-.8ZM4.748,13.407H30.52V3.883H4.748ZM30.512,15.6H4.748V27.906H30.52Z" transform="translate(0.001)" fill="#34626c"/>
  </g>
</svg>
