<svg xmlns="http://www.w3.org/2000/svg" viewBox="0 0 67.42 90"><defs><style>.cls-1{fill:#fff;}</style></defs><title>lang</title><g id="Layer_2" data-name="Layer 2"><g id="Layer_5_copy" data-name="Layer 5 copy"><path class="cls-1" d="M33.71,0A33.71,33.71,0,0,0,0,33.71C0,52.33,26.56,90,33.71,90c6.59,0,33.71-37.67,33.71-56.29A33.71,33.71,0,0,0,33.71,0ZM56.4,56.4A32.08,32.08,0,1,1,11,11c.14-.15.29-.28.43-.42a3.83,3.83,0,0,1-.44,1c-.47.71-1.27,1-1.77,1.66a6.93,6.93,0,0,0-1,2.21,23.69,23.69,0,0,1-.33,2.37c-.33.94-.93,1.5-.82,2.58,1.3.39.74-1.93,1.84-2.05a8.74,8.74,0,0,1,0,3.42c-.14,1.29-.39,1.61.38,2.73.62.88.82,1.47,2,1.61a2.25,2.25,0,0,1,2,1.66c.83.18,1.34.32,1.45,1.25a10.51,10.51,0,0,0,1.43,1c.56.15,1.49-.65,2,0,.88,1-1.11,3.69-1.46,4.61-.52,1.34-.6,3.32.68,4.28.65.5,1.35.74,1.56,1.64a10.55,10.55,0,0,0,.41,2.31c.58,1.22,1.89,1.63,2.83,2.57,1.23,1.23,1.15,2.83,1.15,4.57s.69,3.21.93,4.88.76,3.32,1.12,5c.27,1.25,1.35,3.15,2.92,2.89.11-.59-.51-1.06-.59-1.64s.08-1.09,0-1.67a2.94,2.94,0,0,1,.55-2.78c.26-.34.63-.63.9-1,.53-.68.13-.48.1-1.22,0-.92.26-.47.81-.76a4.08,4.08,0,0,0,.83-.83,12.47,12.47,0,0,0,1.62-1.71c.42-.67.37-1.61.8-2.31s1.2-.8,1.9-1.32c.9-.68.53-1.39.69-2.32a10.65,10.65,0,0,1,2-4.49c1.23-1.56,1.76-2.88.27-4.37-.74-.73-1.13-.54-2.11-.79a17.14,17.14,0,0,0-2.18-.84c-.46-.06-.73.11-1.14,0s-.34-.34-.75-.34c-.61,0-1.47,1.28-2,.47-.29-.45.58-1.7.54-2.31a3.07,3.07,0,0,0-1.06-2.37,12,12,0,0,0-1.22-.31,6.43,6.43,0,0,1-1.15-.63c-.46-.29-1.36-.82-1.57-1.35-.57,0-1-.34-1.54-.33a9.3,9.3,0,0,1-1.43.19c-.5-.06-1-.45-1.56-.38a4.61,4.61,0,0,0-1.19.69,8.43,8.43,0,0,1-2.57,1c-1.39.26-1.64-.28-1.56-1.56L15.51,27c.52-1.43-.41-1.54-1.44-1.88-.14-1,1.12-1.76.59-2.88-1.06,0-2.22,2.94-3.12,1.64-.6-.85.31-3.24.83-4a7.39,7.39,0,0,1,3.34-2.16,1.45,1.45,0,0,1,1.59.84c.29.67-.09,1.3,0,2.06.9-.21.67-1.35.63-2-.07-1,.47-1,1-1.68s.55-1.44,1.14-2.09c.46-.5,1-1,1.51-1.5s1.23-.49,1.82-.88c.9-.59-.29-1.7,1-1.62.47,0,.24.33.86.19a8.92,8.92,0,0,0,1-.42c1.27-.52.37-.65-.21-1.32-.74-.86.31-.71,1.07-.83.56-.1.44-.28.93.05s.18.67.81.65c1.2,0,.37-1.24.1-1.64-.45-.68-.57-1.16-1.54-1.18a1.46,1.46,0,0,0,0-1c-.81.11-1-.49-1.57-.72-1-.39-.87.46-1.29,1S23.31,6.2,23,6.93s0,1.34-1.24,1.13a3.92,3.92,0,0,0,.08-1.53,4.71,4.71,0,0,1-1-.24c0-1.22,1.35-1.32,2.26-1.44s1.37-1.17,2.28-1.35,1.47,1.22,2.53.42c.6-.46.32-.73.1-1.17-.06-.12-.36-.38-.44-.49s0,0,0,0c.82-.16,1.64-.28,2.48-.37a9.49,9.49,0,0,0,.68,1.32c.14.23.39.38.5.64s-.17.65.2.84C32,5,33.61,3,34,2.67s.82-.63.7-1a32,32,0,0,1,7.71,1.18c.2.24.4.5.61.78.43.61.71,1.16,1.5,1.43.46.15,1.91.13,1.31,1.17s-1.18-.3-1.46-.6-1.55-.89-1.52.07c.06,1.44,3.29,1.21,2.6,2.78.38.23,1.15.61,1,1.17s-1.06.26-1,1.15a2.05,2.05,0,0,0,2.68,1.84c1.36-.48.33-2.37,1.9-2.57a1.87,1.87,0,0,1,1.53.54c.45.36.74,1.17,1.35,1.1.07-.38-.22-.66-.27-1a4,4,0,0,1,1.72,1.14c.41.63.37,1.54,1.39.72-.15-.12-.23-.4-.31-.5a2.84,2.84,0,0,1,2.77,1.67c1.24,2.52-1.82.52-2,1.83-.76-.24-1.09-.84-1.75-1.21-.31-.17-.88-.08-1.12-.25s-.25-.68-.54-.92c-1.13-.93-3.72.58-4.76,1.18-.28.16-.58.18-.78.48-.33.53.14.66,0,1.15-.14.7-1,1-1.33,1.58-.66,1.34.68,3.26.5,4.76-.1.82-1,1.72-.65,2.41.15.3.66.56.86.91a11.18,11.18,0,0,0,.49,1.07A42.27,42.27,0,0,0,49.93,30a2,2,0,0,0,2,.57,11.06,11.06,0,0,0,2.18-.62c.78-.38.89-.91,1.71-.55.66.28,1.23,1.12,2,.43.63.61-.07,1.69-.21,2.38a3,3,0,0,0,.71,2.39A2.38,2.38,0,0,1,59,36.83a26.15,26.15,0,0,1-.54,2.72c-.2.88-.76,1.56-.73,2.5A14.26,14.26,0,0,1,58,44.54a19.15,19.15,0,0,1-.37,2.6c-.22.82-.8,1.55-1,2.39A2.79,2.79,0,0,0,57,52c.58.68,1.16.29,1.85-.23,1.34-1,2-2.76,2.85-4.13a26.61,26.61,0,0,0,2.45-4.16c.13-.31.28-.61.44-.92A31.9,31.9,0,0,1,56.4,56.4Z"/></g></g></svg>