<svg id="Layer_2" data-name="Layer 2" xmlns="http://www.w3.org/2000/svg" width="39.18" height="53" viewBox="0 0 39.18 53">
  <g id="Layer_5_copy" data-name="Layer 5 copy" transform="translate(0)">
    <path id="Path_2550" data-name="Path 2550" d="M19.59,0A19.722,19.722,0,0,0,0,19.851C0,30.817,15.435,53,19.59,53c3.83,0,19.59-22.183,19.59-33.149A19.722,19.722,0,0,0,19.59,0ZM32.776,33.213a18.482,18.482,0,0,1-26.383,0,19.084,19.084,0,0,1,0-26.736c.081-.088.169-.165.25-.247a2.271,2.271,0,0,1-.256.589c-.273.418-.738.589-1.029.978a4.107,4.107,0,0,0-.581,1.3q-.061.7-.192,1.4c-.192.554-.54.883-.477,1.519.755.23.43-1.137,1.069-1.207a5.214,5.214,0,0,1,0,2.014c-.081.76-.227.948.221,1.608.36.518.477.866,1.162.948a1.312,1.312,0,0,1,1.162.978c.482.106.779.188.843.736a6.107,6.107,0,0,0,.831.589c.325.088.866-.383,1.162,0,.511.589-.645,2.173-.848,2.715a2.231,2.231,0,0,0,.4,2.52c.378.294.785.436.907.966a6.288,6.288,0,0,0,.238,1.36c.337.718,1.1.96,1.645,1.513a3.486,3.486,0,0,1,.668,2.691,19.726,19.726,0,0,0,.54,2.874c.139.983.442,1.955.651,2.944.157.736.785,1.855,1.7,1.7.064-.347-.3-.624-.343-.966s.046-.642,0-.983a1.749,1.749,0,0,1,.32-1.637c.151-.2.366-.371.523-.589.308-.4.076-.283.058-.718,0-.542.151-.277.471-.448a2.387,2.387,0,0,0,.482-.489,7.3,7.3,0,0,0,.941-1.007c.244-.395.215-.948.465-1.36s.7-.471,1.1-.777c.523-.4.308-.819.4-1.366a6.313,6.313,0,0,1,1.162-2.644c.715-.919,1.023-1.7.157-2.573-.43-.43-.657-.318-1.226-.465a9.881,9.881,0,0,0-1.267-.495c-.267-.035-.424.065-.662,0s-.2-.2-.436-.2c-.354,0-.854.754-1.162.277-.169-.265.337-1,.314-1.36a1.819,1.819,0,0,0-.616-1.4,6.9,6.9,0,0,0-.709-.183,3.722,3.722,0,0,1-.668-.371c-.267-.171-.79-.483-.912-.8-.331,0-.581-.2-.895-.194a5.337,5.337,0,0,1-.831.112c-.291-.035-.581-.265-.907-.224a2.671,2.671,0,0,0-.692.406,4.861,4.861,0,0,1-1.493.589c-.808.153-.953-.165-.907-.919l-.11-.289c.3-.842-.238-.907-.837-1.107-.081-.589.651-1.036.343-1.7-.616,0-1.29,1.731-1.813.966-.349-.5.18-1.908.482-2.356a4.289,4.289,0,0,1,1.941-1.272.84.84,0,0,1,.924.495c.169.395-.052.766,0,1.213.523-.124.389-.8.366-1.178-.041-.589.273-.589.581-.989s.32-.848.662-1.231c.267-.294.581-.589.878-.883s.715-.289,1.058-.518c.523-.347-.169-1,.581-.954.273,0,.139.194.5.112a5.146,5.146,0,0,0,.581-.247c.738-.306.215-.383-.122-.777-.43-.506.18-.418.622-.489.325-.059.256-.165.54.029s.1.395.471.383c.7,0,.215-.73.058-.966-.262-.4-.331-.683-.895-.695a.871.871,0,0,0,0-.589c-.471.065-.581-.289-.912-.424-.581-.23-.506.271-.75.589s-.726.336-.907.766,0,.789-.721.665a2.338,2.338,0,0,0,.046-.9,2.707,2.707,0,0,1-.581-.141c0-.718.785-.777,1.313-.848s.8-.689,1.325-.795.854.718,1.47.247c.349-.271.186-.43.058-.689-.035-.071-.209-.224-.256-.289h0c.477-.094.953-.165,1.441-.218a5.616,5.616,0,0,0,.4.777c.081.135.227.224.291.377s-.1.383.116.495c.331.183,1.267-1,1.493-1.19s.477-.371.407-.589a18.37,18.37,0,0,1,4.48.695c.116.141.232.294.354.459.25.359.413.683.872.842.267.088,1.11.077.761.689s-.686-.177-.848-.353-.9-.524-.883.041c.035.848,1.912.713,1.511,1.637.221.135.668.359.581.689s-.616.153-.581.677a1.211,1.211,0,0,0,.515.931,1.178,1.178,0,0,0,1.042.153c.79-.283.192-1.4,1.1-1.513a1.078,1.078,0,0,1,.889.318c.262.212.43.689.785.648.041-.224-.128-.389-.157-.589a2.323,2.323,0,0,1,1,.671c.238.371.215.907.808.424-.087-.071-.134-.236-.18-.294a1.648,1.648,0,0,1,1.61.983c.721,1.484-1.058.306-1.162,1.078-.442-.141-.633-.495-1.017-.713-.18-.1-.511-.047-.651-.147s-.145-.4-.314-.542c-.657-.548-2.162.342-2.766.695-.163.094-.337.106-.453.283-.192.312.081.389,0,.677-.081.412-.581.589-.773.93-.384.789.4,1.92.291,2.8-.058.483-.581,1.013-.378,1.419.087.177.384.33.5.536a6.626,6.626,0,0,0,.285.63,24.806,24.806,0,0,0,1.627,1.926A1.152,1.152,0,0,0,30.178,18a6.362,6.362,0,0,0,1.267-.365c.453-.224.517-.536.994-.324.384.165.715.66,1.162.253.366.359-.041,1-.122,1.4a1.783,1.783,0,0,0,.413,1.407,1.414,1.414,0,0,1,.4,1.313,15.58,15.58,0,0,1-.314,1.6c-.116.518-.442.919-.424,1.472a8.506,8.506,0,0,1,.157,1.466,11.419,11.419,0,0,1-.215,1.531c-.128.483-.465.913-.581,1.407a1.661,1.661,0,0,0,.215,1.455c.337.4.674.171,1.075-.135a8.128,8.128,0,0,0,1.656-2.432,15.719,15.719,0,0,0,1.424-2.45c.076-.183.163-.359.256-.542A18.839,18.839,0,0,1,32.776,33.213Z" fill="#fff"/>
  </g>
</svg>
