<svg xmlns="http://www.w3.org/2000/svg" xmlns:xlink="http://www.w3.org/1999/xlink" width="124.366" height="115" viewBox="0 0 124.366 115">
  <defs>
    <filter id="Path_196" x="0" y="15.969" width="124.366" height="99.031" filterUnits="userSpaceOnUse">
      <feOffset dx="10" dy="10" input="SourceAlpha"/>
      <feGaussianBlur stdDeviation="5" result="blur"/>
      <feFlood flood-opacity="0.431"/>
      <feComposite operator="in" in2="blur"/>
      <feComposite in="SourceGraphic"/>
    </filter>
  </defs>
  <g id="money_bag" data-name="money bag" transform="translate(5.04 0.03)">
    <g id="Layer_2" data-name="Layer 2" transform="translate(-0.04 -0.03)">
      <g id="Layer_1" data-name="Layer 1">
        <g transform="matrix(1, 0, 0, 1, -5, 0)" filter="url(#Path_196)">
          <path id="Path_196-2" data-name="Path 196" d="M94.2,55.606c-2.34,28.708-43.116,25.148-60.76,25.042C17.4,78.877,1.637,73.316.092,55.606c-.853-9.581,2.56-17.214,6.71-24.794a201.379,201.379,0,0,0,8.829-18.843H77.878a2.01,2.01,0,0,0,.795-.159A205.459,205.459,0,0,0,87.5,30.759C91.7,38.392,95.036,46.008,94.2,55.606Z" transform="translate(5.04 9.16)" fill="#a0642f"/>
        </g>
        <path id="Path_197" data-name="Path 197" d="M76.106,17.963A3.069,3.069,0,0,1,74.3,20.9a2,2,0,0,1-.78.159h-30.5l-.736-.354-.736.354H11.829a2.447,2.447,0,0,1-.515,0,2.814,2.814,0,0,1-1.961-2.135,3.556,3.556,0,0,1,.637-3.089,2.454,2.454,0,0,1,1.839-.974H36.154l-.515-1.523a5.475,5.475,0,0,1-4.413-3.133,7.873,7.873,0,0,1-.4-6.147A6.241,6.241,0,0,1,33.894.451a4.727,4.727,0,0,1,4.29.068,6.213,6.213,0,0,1,2.988,3.636,7.9,7.9,0,0,1-.045,5.113,6.673,6.673,0,0,1-1.074,1.948l1.192,3.542H73.619a2.935,2.935,0,0,1,2.487,3.205Z" transform="translate(4.416 0.03)" fill="#f9f21e"/>
        <path id="Path_198" data-name="Path 198" d="M32.666,12.034H31.18l.75-.354Z" transform="translate(14.761 9.059)" fill="#f2dc73"/>
        <path id="Path_199" data-name="Path 199" d="M39.972,12.764a4.733,4.733,0,0,1-1.9.531l-.5,1.523H32.526l1.192-3.542a7.041,7.041,0,0,1-1.074-1.948A7.9,7.9,0,0,1,32.6,4.215,6.213,6.213,0,0,1,35.587.579a4.727,4.727,0,0,1,4.29-.068,6.241,6.241,0,0,1,3.068,3.61c1.14,3.374-.184,7.225-2.973,8.642Z" transform="translate(15.24 0.077)" fill="#ccc619"/>
        <path id="Path_200" data-name="Path 200" d="M74.9,63.656c-4.334,5.337-10.518,7.874-16.658,6.836a16.5,16.5,0,0,1-5.886-2.143c-5.609-3.243-9.575-9.543-10.649-16.921a26.4,26.4,0,0,1,5.234-20.27c7.5-9.224,19.78-9.453,27.518-.514A25.619,25.619,0,0,1,80.41,47.039,25.9,25.9,0,0,1,74.9,63.656Z" transform="translate(19.588 18.625)" fill="#f9f21e"/>
        <path id="Path_201" data-name="Path 201" d="M71.349,59.009c-6.207,7.574-16.314,7.755-22.706.407a21.155,21.155,0,0,1-4.875-13.495A21.378,21.378,0,0,1,48.29,32.249c6.208-7.585,16.327-7.767,22.721-.407a21.16,21.16,0,0,1,4.868,13.5,21.373,21.373,0,0,1-4.529,13.668Z" transform="translate(20.695 20.438)" fill="#d7c816"/>
        <path id="Path_202" data-name="Path 202" d="M61.533,49.807a4.939,4.939,0,0,1-2.178,3.17,4.271,4.271,0,0,1-2.752.567l-.912-.159-.53,2.072-2.5-.939.559-2.125A6.266,6.266,0,0,1,50.261,48.3a7.914,7.914,0,0,1,0-3.17l3.34,1.009a4.708,4.708,0,0,0,.4,2.975,2.192,2.192,0,0,0,1.266,1.08,2.009,2.009,0,0,0,2.752-1.541,4.056,4.056,0,0,0-.706-2.975l-2.384-3.719a14.593,14.593,0,0,1-1.751-3.542,6.114,6.114,0,0,1,0-3.135A4.29,4.29,0,0,1,56.383,31.9a4.909,4.909,0,0,1,2.148,0l.544-2.072,2.5.921-.544,2.072a7.074,7.074,0,0,1,1.751,1.328,5.624,5.624,0,0,1,1.236,2.214,6.008,6.008,0,0,1,.147,2.621L60.724,38.3a3.777,3.777,0,0,0-.294-2.231,2.087,2.087,0,0,0-1.251-1.009,1.515,1.515,0,0,0-1.619.213,2.53,2.53,0,0,0-.795,1.328,4.835,4.835,0,0,0,.618,3.329A14.028,14.028,0,0,0,58.59,41.8c.647.885,1.06,1.488,1.251,1.771a12.684,12.684,0,0,1,1.472,2.958q.166.566.28,1.151a5.408,5.408,0,0,1-.059,2.125Z" transform="translate(23.683 23.052)" fill="#f9f21e"/>
        <g id="Group_10" data-name="Group 10" transform="translate(33.138 49.871)" opacity="0.4">
          <path id="Path_203" data-name="Path 203" d="M61.976,65.622c-13.332,3.542-29.607,2.5-39.128,2.462H22.48L55.854,28.13a26.349,26.349,0,0,0-5.248,20.279c1.078,7.383,5.056,13.684,10.678,16.911Z" transform="translate(-22.48 -28.13)" fill="#838f92"/>
        </g>
      </g>
    </g>
  </g>
</svg>
