<svg id="parking-sign" xmlns="http://www.w3.org/2000/svg" width="25" height="25" viewBox="0 0 25 25">
  <g id="Layer_2" data-name="Layer 2">
    <g id="Layer_1" data-name="Layer 1">
      <rect id="Rectangle_23" data-name="Rectangle 23" width="25" height="25" rx="6.79" fill="#34626c"/>
      <path id="Path_2545" data-name="Path 2545" d="M23.79,23.507v4.265H20.84V15h4.508a7.417,7.417,0,0,1,2.32.321,4.471,4.471,0,0,1,1.6.878,3.437,3.437,0,0,1,.923,1.327,4.508,4.508,0,0,1,.3,1.648,4.817,4.817,0,0,1-.309,1.755,3.5,3.5,0,0,1-.94,1.368,4.426,4.426,0,0,1-1.6.89,7.331,7.331,0,0,1-2.3.321Zm0-2.238h1.545a2.192,2.192,0,0,0,1.648-.552,2.2,2.2,0,0,0,.507-1.545,2.357,2.357,0,0,0-.132-.8,1.586,1.586,0,0,0-.412-.618,1.85,1.85,0,0,0-.676-.412,3.062,3.062,0,0,0-.968-.14H23.79Z" transform="translate(-12.253 -8.817)" fill="#fff"/>
      <path id="Path_2546" data-name="Path 2546" d="M3.886,1.2A2.3,2.3,0,0,0,1.85,2.436c1.545,2.11,6.218,9.008,11.74,9.008s10.19-6.9,11.74-9a2.3,2.3,0,0,0-2.036-1.236Z" transform="translate(-1.088 -0.706)" fill="rgba(109,192,238,0.51)"/>
      <path id="Path_2547" data-name="Path 2547" d="M3.886,54.7A2.3,2.3,0,0,1,1.85,53.46c1.545-2.1,6.218-2.06,11.74-2.06s10.19-.054,11.74,2.06A2.3,2.3,0,0,1,23.294,54.7Z" transform="translate(-1.088 -30.22)" fill="#34626c"/>
      <path id="Path_2548" data-name="Path 2548" d="M23.97,25.528H4.562A1.562,1.562,0,0,1,3,23.97V4.562A1.562,1.562,0,0,1,4.562,3H23.97a1.562,1.562,0,0,1,1.558,1.562V23.97A1.562,1.562,0,0,1,23.97,25.528ZM4.562,3.494A1.067,1.067,0,0,0,3.494,4.562V23.97a1.067,1.067,0,0,0,1.067,1.063H23.97a1.067,1.067,0,0,0,1.063-1.063V4.562A1.067,1.067,0,0,0,23.97,3.494Z" transform="translate(-1.764 -1.764)" fill="#fff"/>
    </g>
  </g>
</svg>
