<svg xmlns="http://www.w3.org/2000/svg" width="100" height="90" viewBox="0 0 100 90">
  <g id="Layer_2" data-name="Layer 2" transform="translate(0.041 0.028)">
    <g id="Capa_1" data-name="Capa 1" transform="translate(-0.041 -0.028)">
      <path id="Path_183" data-name="Path 183" d="M49.712,45.888l6.674-12.894L47.259,17.77,20.45,33.367,29.278,48.1l14.71.944-6.3,12.668,9.127,15.233,26.809-15.6L64.8,46.616Z" transform="translate(-2.433 -2.348)" fill="#90d4d2"/>
      <path id="Path_184" data-name="Path 184" d="M55.48,35.942,52.341,30.7,30.28,43.533l2.849,4.74L47.9,49.347l-6.858,13.76,8.67,14.566,23.2-13.5L64.2,49.633l-15.774-.581Z" transform="translate(-3.62 -4.074)" fill="#f1d247"/>
      <path id="Path_186" data-name="Path 186" d="M0,0,38.586.246l.041,6.4L.041,6.4Z" transform="translate(13.199 30.115) rotate(-30.56)" fill="#343f57"/>
      <path id="Path_187" data-name="Path 187" d="M0,0,38.586.246l.041,6.4L.041,6.4Z" transform="translate(39.375 73.805) rotate(-30.56)" fill="#343f57"/>
      <path id="Path_185" data-name="Path 185" d="M99.959,50.037,87.711,34.258,75.471,50.037h9.074C81.8,70.559,63.138,85.309,42.213,83.5S5.52,63.968,6.437,43.288,24.633,6.306,45.638,6.3A39.241,39.241,0,0,1,63.39,10.481l2.9-5.632a46.157,46.157,0,0,0-53.347,8.692A44.506,44.506,0,0,0,5.421,66.31,45.882,45.882,0,0,0,54.272,89.154,45.266,45.266,0,0,0,90.99,50.037Z" transform="translate(0.041 0.028)" fill="#343f57"/>
    </g>
  </g>
</svg>
