<svg xmlns="http://www.w3.org/2000/svg" xmlns:xlink="http://www.w3.org/1999/xlink" width="215.555" height="138.747" viewBox="0 0 215.555 138.747">
  <defs>
    <filter id="Path_204" x="1.93" y="0" width="213.625" height="138.747" filterUnits="userSpaceOnUse">
      <feOffset dx="10" dy="10" input="SourceAlpha"/>
      <feGaussianBlur stdDeviation="5" result="blur"/>
      <feFlood flood-opacity="0.161"/>
      <feComposite operator="in" in2="blur"/>
      <feComposite in="SourceGraphic"/>
    </filter>
    <linearGradient id="linear-gradient" x1="0.035" y1="1.37" x2="1.301" y2="-0.95" gradientUnits="objectBoundingBox">
      <stop offset="0" stop-color="#fff"/>
      <stop offset="1" stop-color="#fff" stop-opacity="0"/>
    </linearGradient>
    <linearGradient id="linear-gradient-2" x1="0.292" y1="1.135" x2="1.518" y2="-0.837" xlink:href="#linear-gradient"/>
  </defs>
  <g id="search-img" transform="translate(0 4.99)">
    <g id="Layer_2" data-name="Layer 2" transform="translate(0 0.009)">
      <g id="OBJECTS">
        <g transform="matrix(1, 0, 0, 1, 0, -5)" filter="url(#Path_204)">
          <path id="Path_204-2" data-name="Path 204" d="M44.45,108.756H173.031c12.6,0,23.521-8.164,25.235-19.288.037-.262.075-.523.1-.789.564-4.833-.545-9.613-4.946-13.288-14.094-11.776,5.589-26.957,2.641-37.425s-13.209-4.456-32.291-20.936-16.1-25.678-49.272-5.46C87.887,27.8,55.987,9.739,40.133,16.806s.051,27.962-19.324,50.468c-12.226,14.2-3.079,27.044,5.361,34.594a27.174,27.174,0,0,0,18.281,6.889Z" transform="translate(-7.95 4.99)" fill="#ccf2ff"/>
        </g>
        <path id="Path_205" data-name="Path 205" d="M320.511,37.964C317.576,27.5,307.3,33.513,288.22,17.032,275.23,5.82,272.458-2.036,261.55.484c8.71,2.716,11.178,5.174,13.6,10.215,13.893,28.967-14.876,58.1,4.695,71.188,10.778,7.209-11.621,17.747-32.03,26.87h49.659c12.6,0,23.521-8.164,25.235-19.288.037-.262.075-.523.1-.789.564-4.833-.545-9.613-4.946-13.288C303.794,63.613,323.445,48.432,320.511,37.964Z" transform="translate(-132.397 -0.011)" fill="#ade4f2" opacity="0.48"/>
        <path id="Path_206" data-name="Path 206" d="M137.355,26.311,113.21,21.66l8.975,15.588,5.915-4.173,2.352,3.621.755-6.528Z" transform="translate(-60.482 -12.67)" fill="#379cf7"/>
        <path id="Path_207" data-name="Path 207" d="M130.536,29.853l.671.316-.755,6.528L128.1,33.075,113.21,21.66Z" transform="translate(-60.482 -12.67)" fill="#092b96"/>
        <path id="Path_208" data-name="Path 208" d="M139.5,51.014l5,1.756-2.352-3.621Z" transform="translate(-74.527 -28.745)" fill="#1574bc"/>
        <path id="Path_209" data-name="Path 209" d="M153.044,58.658c-.219-.187-.428-.386-.624-.585l.172-.133c.191.2.4.39.61.577Z" transform="translate(-81.43 -33.885)" fill="#092b96"/>
        <path id="Path_210" data-name="Path 210" d="M218.8,82.859c-.592-.033-1.192-.079-1.779-.137l.023-.2c.587.058,1.183.1,1.77.137Zm-3.549-.349c-.587-.087-1.178-.183-1.756-.295l.047-.2c.577.108,1.164.208,1.742.291Zm-3.5-.66c-.573-.133-1.15-.282-1.714-.44l.065-.191c.559.158,1.136.3,1.709.44Zm-3.4-.951c-.559-.179-1.118-.374-1.663-.581l.084-.183c.545.2,1.1.415,1.653.577Zm-3.3-1.246c-.536-.224-1.071-.465-1.593-.714l.1-.174c.522.245,1.053.482,1.588.71Zm-3.153-1.491c-.512-.27-1.02-.552-1.514-.83l.121-.166c.494.287,1,.569,1.509.83Zm-2.986-1.744c-.466-.311-.959-.635-1.425-.963l.14-.158c.466.328.931.652,1.4.959Zm-2.794-1.985c-.466-.349-.89-.71-1.313-1.075l.154-.145c.424.365.862.727,1.309,1.071Zm-2.571-2.2c-.405-.386-.81-.785-1.2-1.188l.172-.129c.382.415.782.8,1.188,1.179Zm-2.329-2.421c-.363-.415-.717-.83-1.057-1.283l.186-.116c.335.415.685.86,1.048,1.279Zm-2.04-2.612-.224-.328c-.238-.353-.466-.706-.68-1.046l.2-.1c.214.34.438.693.68,1.042.07.108.144.216.219.324ZM187.455,64.4c-.261-.49-.5-.984-.708-1.466l.21-.071c.21.478.442.967.7,1.453Zm-1.262-2.961a13.881,13.881,0,0,1-.419-1.549l.219-.037a14.924,14.924,0,0,0,.414,1.532Zm1.285-2.907v-.2a9.641,9.641,0,0,0,1.737-.212l.061.191a9.238,9.238,0,0,1-1.8.224Zm-1.793-.05a15.639,15.639,0,0,1-1.77-.245l.047-.2a15.248,15.248,0,0,0,1.574.228c0-.228-.028-.453-.028-.669a5.245,5.245,0,0,1,.051-.905h.224a7.755,7.755,0,0,0-.056.922q0,.336.028.685h-.028Zm-3.489-.723a9.654,9.654,0,0,1-1.593-.739l.121-.166a9.712,9.712,0,0,0,1.556.723Zm8.724-.1-.126-.166.13-.079a3.367,3.367,0,0,0,1.025-1.046l.2.1a3.586,3.586,0,0,1-1.085,1.113Zm-11.709-1.661a8.927,8.927,0,0,1-1.141-1.246l.182-.116a8.92,8.92,0,0,0,1.118,1.212Zm6.986-.8-.21-.071a4.328,4.328,0,0,1,.931-1.383l.168.133a4.1,4.1,0,0,0-.894,1.32Zm6.181-.3a1.947,1.947,0,0,0-.284-.938,2.063,2.063,0,0,0-.359-.415l.163-.141a2.216,2.216,0,0,1,.391.473,2.093,2.093,0,0,1,.312,1.026Zm-25.444-1.354v-.2c.568,0,1.164,0,1.775-.054v.2c-.624.033-1.225.054-1.793.054Zm-1.788-.046c-.61-.037-1.206-.1-1.779-.174l.033-.2c.568.079,1.16.137,1.761.17Zm12.03-.12c-.256-.448-.494-.926-.731-1.457l.21-.075a14.914,14.914,0,0,0,.722,1.441Zm-6.679-.025v-.2l1.4-.154.354-.046.033.2-.359.042c-.531.062-.992.112-1.444.158Zm18.025-.311-.07-.191a4.384,4.384,0,0,1,1.807-.162l-.033.2A4.191,4.191,0,0,0,188.522,53.053Zm-26.907-.042q-.869-.2-1.709-.482l.079-.187q.828.278,1.686.473Zm12.417-.12-.042-.2q.867-.152,1.714-.382l.065.191q-.869.235-1.761.39Zm3.419-.951-.093-.183a10.188,10.188,0,0,0,1.5-.781l.126.162a10.047,10.047,0,0,1-1.556.806Zm-19.2-.066a12.893,12.893,0,0,1-1.528-.83l.13-.162a13.414,13.414,0,0,0,1.5.83Zm17.582-1.445a11.588,11.588,0,0,1-.442-1.528l.224-.037a10.551,10.551,0,0,0,.433,1.524Zm4.49-.365-.168-.133a6.219,6.219,0,0,0,.964-1.3l.2.091A6.476,6.476,0,0,1,180.32,50.064Zm-4.839-2.778h-.224a5.042,5.042,0,0,1,.075-.71,4.291,4.291,0,0,1,.256-.876l.21.071a4.178,4.178,0,0,0-.242.83A4.842,4.842,0,0,0,175.481,47.286Zm6.413-.1-.219-.033a4.081,4.081,0,0,0,.084-.83,3.778,3.778,0,0,0-.07-.727l.219-.033a3.717,3.717,0,0,1,.074.76,4.126,4.126,0,0,1-.1.864Zm-5.23-2.77-.172-.129a3.917,3.917,0,0,1,1.453-.972l.089.187a3.646,3.646,0,0,0-1.379.914Zm4.387-.233a2.287,2.287,0,0,0-.857-.685,2.144,2.144,0,0,0-.5-.158l.047-.2a2.426,2.426,0,0,1,.554.174,2.485,2.485,0,0,1,.931.764Z" transform="translate(-83.727 -25.236)" fill="#092b96"/>
        <path id="Path_211" data-name="Path 211" d="M294.275,138.633H294v-.2h.9v.2Z" transform="translate(-157.068 -80.952)" fill="#092b96"/>
        <path id="Path_212" data-name="Path 212" d="M284.255,50.315a10.012,10.012,0,0,0-.978-.415c5.346,3.227,7.083,9.539,4.019,14.605s-9.934,7.241-15.9,5.031c.3.174.61.34.931.494,6.055,2.595,13.328.488,16.517-4.784S290.014,53.4,284.255,50.315Z" transform="translate(-144.994 -29.184)" fill="#1d88d8"/>
        <path id="Path_213" data-name="Path 213" d="M273.617,46.785a13.827,13.827,0,0,0-13.921,1.16,10.506,10.506,0,0,0-4.114,11.913c1.459,4.347,5.714,7.482,10.779,7.94a13.011,13.011,0,0,0,12.347-5.849C282,56.509,279.721,49.719,273.617,46.785ZM263.37,63.715c-4.386-2.109-6.024-6.988-3.658-10.9s7.839-5.37,12.224-3.26,6.022,6.989,3.656,10.9-7.833,5.362-12.217,3.26Z" transform="translate(-136.261 -26.571)" fill="#379cf7"/>
        <path id="Path_214" data-name="Path 214" d="M259.266,52.648c3.1-5.1,10.052-7.256,16.031-4.962-.3-.174-.615-.341-.932-.494-6.04-2.527-13.242-.409-16.409,4.826s-1.2,11.764,4.486,14.877a9.474,9.474,0,0,0,.983.415c-5.432-3.192-7.236-9.551-4.159-14.662Z" transform="translate(-137.005 -26.978)" fill="#379cf7"/>
        <path id="Path_215" data-name="Path 215" d="M275.9,53.951c-4.422-2.041-9.863-.5-12.152,3.443s-.561,8.793,3.86,10.835,9.863.5,12.153-3.44S280.322,55.994,275.9,53.951Z" transform="translate(-140.366 -31.025)" fill="#fff" opacity="0.05"/>
        <path id="Path_216" data-name="Path 216" d="M279.695,58.738l-16.907,4.5a7.2,7.2,0,0,1,.931-4.323l12.487-3.322A8.493,8.493,0,0,1,279.695,58.738Z" transform="translate(-140.373 -32.511)" fill="url(#linear-gradient)"/>
        <path id="Path_217" data-name="Path 217" d="M280.4,73.484c-.042.075-.089.149-.135.22l-12.044,3.21a8.361,8.361,0,0,1-4.308-4.393l17.233-4.6A7.233,7.233,0,0,1,280.4,73.484Z" transform="translate(-140.993 -39.721)" fill="url(#linear-gradient-2)"/>
        <path id="Path_313" data-name="Path 313" d="M3.122.808,7.543.6,6.3,25.748l-4.421.205Z" transform="translate(122.485 35.681) rotate(28.34)" fill="#379cf7"/>
        <path id="Path_218" data-name="Path 218" d="M356.615,64.528V62.419a.885.885,0,0,0-.932-.83h-1.206a1.3,1.3,0,0,1-1.244-.83,7.665,7.665,0,0,0-.512-1.113,1.074,1.074,0,0,1,.233-1.358l.852-.76a.769.769,0,0,0,0-1.175l-1.677-1.495a1.013,1.013,0,0,0-1.323,0l-.852.76a1.419,1.419,0,0,1-1.518.208,10.481,10.481,0,0,0-1.248-.461,1.188,1.188,0,0,1-.894-1.071V53.2a.885.885,0,0,0-.932-.83H343a.885.885,0,0,0-.932.83v1.092a1.19,1.19,0,0,1-.908,1.1,10.177,10.177,0,0,0-1.248.461,1.43,1.43,0,0,1-1.523-.208l-.852-.76a1.013,1.013,0,0,0-1.318,0l-1.677,1.495a.768.768,0,0,0,0,1.175l.852.76a1.077,1.077,0,0,1,.233,1.358,8.227,8.227,0,0,0-.517,1.113,1.293,1.293,0,0,1-1.239.83h-1.206a.885.885,0,0,0-.931.83v2.109a.885.885,0,0,0,.931.83h1.206a1.293,1.293,0,0,1,1.239.83,8.19,8.19,0,0,0,.475,1.063,1.078,1.078,0,0,1-.233,1.358l-.852.76a.768.768,0,0,0,0,1.175l1.677,1.495a1.013,1.013,0,0,0,1.318,0l.885-.756a1.43,1.43,0,0,1,1.523-.208,10.183,10.183,0,0,0,1.248.461,1.19,1.19,0,0,1,.908,1.1v1.075a.885.885,0,0,0,.932.83h2.375a.885.885,0,0,0,.932-.83V72.675a1.185,1.185,0,0,1,.908-1.1,10.478,10.478,0,0,0,1.248-.461,1.42,1.42,0,0,1,1.518.208l.852.76a1.013,1.013,0,0,0,1.323,0l1.677-1.495a.769.769,0,0,0,0-1.175l-.852-.76a1.074,1.074,0,0,1-.233-1.358,7.655,7.655,0,0,0,.512-1.113,1.3,1.3,0,0,1,1.244-.83H355.7A.885.885,0,0,0,356.615,64.528Zm-12.454,1.495a2.566,2.566,0,1,1,2.86-2.55A2.718,2.718,0,0,1,344.161,66.023Z" transform="translate(-177.225 -30.628)" fill="#1d88d8"/>
        <path id="Path_219" data-name="Path 219" d="M393.973,103.58v-1.192a.5.5,0,0,0-.531-.473h-.68a.742.742,0,0,1-.7-.457,3.959,3.959,0,0,0-.293-.631.608.608,0,0,1,.135-.768l.466-.415a.434.434,0,0,0,0-.669l-.932-.83a.572.572,0,0,0-.75,0l-.466.415a.809.809,0,0,1-.862.116,5.617,5.617,0,0,0-.708-.257.677.677,0,0,1-.512-.627v-.619a.5.5,0,0,0-.531-.473H386.27a.5.5,0,0,0-.531.473v.606a.677.677,0,0,1-.512.627,5.617,5.617,0,0,0-.708.257.809.809,0,0,1-.862-.116l-.466-.415a.567.567,0,0,0-.745,0l-.931.83a.434.434,0,0,0,0,.669l.466.415a.608.608,0,0,1,.13.768,4.39,4.39,0,0,0-.289.631.742.742,0,0,1-.7.457H380.4a.5.5,0,0,0-.526.473v1.192a.5.5,0,0,0,.526.473h.685a.742.742,0,0,1,.7.457,4.39,4.39,0,0,0,.289.631.608.608,0,0,1-.13.768l-.466.415a.435.435,0,0,0,0,.669l.932.83a.567.567,0,0,0,.745,0l.466-.415a.819.819,0,0,1,.862-.12,5.051,5.051,0,0,0,.708.262.677.677,0,0,1,.512.627v.606a.5.5,0,0,0,.531.473h1.337a.5.5,0,0,0,.531-.473v-.606a.677.677,0,0,1,.512-.627,5.051,5.051,0,0,0,.708-.262.82.82,0,0,1,.862.12l.466.415a.572.572,0,0,0,.75,0l.932-.83a.434.434,0,0,0,0-.669l-.466-.415a.608.608,0,0,1-.135-.768,3.978,3.978,0,0,0,.293-.631.742.742,0,0,1,.7-.457h.713A.507.507,0,0,0,393.973,103.58Zm-7.056,1.914A2.508,2.508,0,1,1,389.711,103,2.656,2.656,0,0,1,386.917,105.495Z" transform="translate(-202.944 -56.55)" fill="#379cf7"/>
        <path id="Path_220" data-name="Path 220" d="M404.184,70.88v-1.2a.5.5,0,0,0-.526-.473h-.685a.742.742,0,0,1-.7-.457,4.621,4.621,0,0,0-.289-.631.607.607,0,0,1,.13-.768l.466-.415a.441.441,0,0,0,0-.669l-.931-.83a.573.573,0,0,0-.745,0l-.466.415a.809.809,0,0,1-.862.12,5.224,5.224,0,0,0-.7-.262.678.678,0,0,1-.517-.627v-.619a.451.451,0,0,0-.162-.336.568.568,0,0,0-.383-.133h-1.341a.5.5,0,0,0-.531.473v.606a.677.677,0,0,1-.512.627,5.28,5.28,0,0,0-.708.262.814.814,0,0,1-.862-.12l-.466-.415a.583.583,0,0,0-.75,0l-.932.83a.442.442,0,0,0,0,.669l.466.415a.608.608,0,0,1,.135.768,4.154,4.154,0,0,0-.293.631.742.742,0,0,1-.7.457h-.68a.5.5,0,0,0-.531.473v1.2a.505.505,0,0,0,.531.469h.68a.741.741,0,0,1,.7.461,4.108,4.108,0,0,0,.293.627.608.608,0,0,1-.135.768l-.466.415a.434.434,0,0,0,0,.664l.932.83a.583.583,0,0,0,.75,0l.466-.415a.809.809,0,0,1,.862-.116,5.9,5.9,0,0,0,.708.257.677.677,0,0,1,.512.627v.61a.505.505,0,0,0,.531.469h1.341a.5.5,0,0,0,.526-.469v-.585a.678.678,0,0,1,.517-.627,5.831,5.831,0,0,0,.7-.257.809.809,0,0,1,.862.116l.466.415a.573.573,0,0,0,.745,0l.932-.83a.434.434,0,0,0,0-.664l-.466-.415a.607.607,0,0,1-.13-.768,4.569,4.569,0,0,0,.289-.627.741.741,0,0,1,.7-.461h.685a.567.567,0,0,0,.39-.138A.448.448,0,0,0,404.184,70.88Zm-7.047.664a1.254,1.254,0,1,1,1.4-1.246,1.328,1.328,0,0,1-1.4,1.246Z" transform="translate(-208.409 -37.428)" fill="#2b56e0"/>
        <path id="Path_221" data-name="Path 221" d="M42.016,152.088S28.532,136.4,0,138.016C0,138.016,15.118,154.135,42.016,152.088Z" transform="translate(0 -80.642)" fill="#1d88d8"/>
        <path id="Path_222" data-name="Path 222" d="M51.208,95.04s2.92-19.6-18.528-36.45C32.68,58.59,30.57,79.522,51.208,95.04Z" transform="translate(-17.427 -34.265)" fill="#7dc4f9"/>
        <path id="Path_223" data-name="Path 223" d="M68,104.748S87,95.583,89.639,70.86C89.658,70.86,69.933,81.357,68,104.748Z" transform="translate(-36.329 -41.44)" fill="#7dc4f9"/>
        <path id="Path_224" data-name="Path 224" d="M63.832,94.824S48,86.166,53.777,81.777c4.327-3.289-4.192-7.508-.932-9.135s3.917-.133,2.795-4.339,2.664-5.344,4.038-9.625,8.151-2.7,7.657,3.513,1.546-.374,3.791,2.246-5.207,12.69-2.371,11.83,5.012,1.063,4.033,4.1C70.46,87.449,63.832,94.824,63.832,94.824Z" transform="translate(-27.825 -32.907)" fill="#1d88d8"/>
        <path id="Path_225" data-name="Path 225" d="M68.393,105.485a.08.08,0,0,1-.051-.062,130.777,130.777,0,0,1-2.869-17.544v-.05l-.042-.033a39.993,39.993,0,0,1-4.443-4.152q-.685-.71-1.374-1.408c-.028-.025-.033-.046,0-.071a.131.131,0,0,1,.144-.033h.033q.675.685,1.346,1.374a43.769,43.769,0,0,0,4.08,3.862l.247.2v-.295c-.2-2.7-.265-5.469-.2-8.446v-.079l-.084-.033-.033-.025a31.058,31.058,0,0,1-3.26-5.4.054.054,0,0,1,0-.079A.133.133,0,0,1,62,73.188a.079.079,0,0,1,.042.042,30.793,30.793,0,0,0,2.944,4.983l.238.332v-.415c.075-2.815.261-5.726.564-8.894,0-.037,0-.046.028-.05a.129.129,0,0,1,.1,0,.086.086,0,0,1,.056.087c-.41,4.372-.605,8.288-.605,12.013v.237l.214-.137a21.3,21.3,0,0,0,6-5.705c0-.025.037-.037.075,0a.116.116,0,0,1,.07.075.083.083,0,0,1,0,.079,21.424,21.424,0,0,1-6.264,5.851l-.075.042v.066c0,2.076.1,4.028.252,5.921v.033l.023.029a.068.068,0,0,1,0,.079v.062c.135,1.661.331,3.426.605,5.365l.028.32.2-.262a82.533,82.533,0,0,1,6.176-7.175.1.1,0,0,1,.116,0,.107.107,0,0,1,.061.066v.054a83.14,83.14,0,0,0-6.46,7.549l-.028.037v.046c.5,3.393,1.188,7.059,2.18,11.523v.058a.139.139,0,0,1-.121,0Z" transform="translate(-31.836 -40.455)" fill="#092b96" opacity="0.39"/>
        <path id="Path_226" data-name="Path 226" d="M39.034,114.856s-18.2,6.229-18.63-.86c-.317-5.311-9.7-1.661-9.157-5.12s2.375-3-2.282-4.829-3.3-5.4-6.423-9.135,2.673-7.786,8.169-3.451.643-1.383,4.522-1.383,8.542,11.967,9.548,9.314,4.192-3.048,6.4-.382C36.37,105.222,39.034,114.856,39.034,114.856Z" transform="translate(-0.889 -52.391)" fill="#379cf7"/>
        <path id="Path_227" data-name="Path 227" d="M48.131,123.946a.119.119,0,0,1-.093,0,180.706,180.706,0,0,1-18.23-9.065l-.047-.033H29.7a50.217,50.217,0,0,1-6.716.656c-.731.037-1.462.075-2.189.125-.042,0-.065,0-.075-.042a.112.112,0,0,1,.061-.129h.042c.713-.05,1.43-.087,2.142-.125a53.417,53.417,0,0,0,6.213-.569l.34-.058-.289-.17c-2.655-1.578-5.282-3.293-8.03-5.24l-.075-.05-.079.037H21a42.357,42.357,0,0,1-7.135-1.046.064.064,0,0,1-.065-.062.113.113,0,0,1,.061-.108.088.088,0,0,1,.065,0,42.033,42.033,0,0,0,6.549,1l.466.033-.363-.262c-2.585-1.852-5.189-3.845-7.96-6.092a.056.056,0,0,1-.028-.054.125.125,0,0,1,.07-.075.107.107,0,0,1,.116,0c3.787,3.073,7.326,5.714,10.819,8.081l.219.149V110.6a19.122,19.122,0,0,0-1.514-8.089.041.041,0,0,1,0-.039.049.049,0,0,1,.032-.027.161.161,0,0,1,.116,0,.1.1,0,0,1,.061.058,19.128,19.128,0,0,1,1.5,8.4v.075l.065.042c1.965,1.32,3.829,2.491,5.7,3.592h.07a.1.1,0,0,1,.079.05v.029l.033.021c1.653.967,3.419,1.939,5.4,2.973l.326.17-.116-.32a77.363,77.363,0,0,1-2.757-9.11.081.081,0,0,1,.051-.1.129.129,0,0,1,.1,0s.028,0,.037.05A77.639,77.639,0,0,0,35.933,118v.046l.047.025c3.489,1.8,7.354,3.621,12.166,5.739a.044.044,0,0,1,.047.05.113.113,0,0,1-.075.1Z" transform="translate(-6.726 -59.903)" fill="#092b96" opacity="0.39"/>
        <path id="Path_228" data-name="Path 228" d="M198.779,115.82H56.29a2.313,2.313,0,0,0-2.427,2.151l-.293,61.945A2.306,2.306,0,0,0,56,182.08l142.782-1.046a2.306,2.306,0,0,0,2.427-2.163v-60.9A2.308,2.308,0,0,0,198.779,115.82Z" transform="translate(-28.619 -67.731)" fill="#fff"/>
        <rect id="Rectangle_9" data-name="Rectangle 9" width="116.662" height="12.976" rx="4.35" transform="translate(39.356 65.587)" fill="#d8e8ef"/>
        <path id="Path_229" data-name="Path 229" d="M112.073,158H86.526a1.929,1.929,0,0,0-2.026,1.81v9.359a1.926,1.926,0,0,0,2.026,1.806h25.547a1.957,1.957,0,0,0,2.059-1.835v-9.3a1.74,1.74,0,0,0-.6-1.3A2.192,2.192,0,0,0,112.073,158Z" transform="translate(-45.144 -92.396)" fill="#379cf7"/>
        <rect id="Rectangle_10" data-name="Rectangle 10" width="19.17" height="17.091" rx="5.09" transform="translate(40.735 85.332)" fill="#7dc4f9"/>
        <rect id="Rectangle_11" data-name="Rectangle 11" width="19.17" height="17.091" rx="5.09" transform="translate(78.783 85.332)" fill="#1d88d8"/>
        <path id="Path_230" data-name="Path 230" d="M133.7,209.186a.268.268,0,0,1,0-.536h12.729a.268.268,0,0,1,0,.536Z" transform="translate(-71.285 -122.014)" fill="#abd0dd"/>
        <path id="Path_231" data-name="Path 231" d="M133.7,215.826a.268.268,0,0,1,0-.536h12.729a.268.268,0,0,1,0,.536Z" transform="translate(-71.285 -125.897)" fill="#abd0dd"/>
        <path id="Path_232" data-name="Path 232" d="M133.658,222.472a.268.268,0,1,1,0-.531h12.729a.267.267,0,1,1,0,.531Z" transform="translate(-71.247 -129.786)" fill="#abd0dd"/>
        <path id="Path_233" data-name="Path 233" d="M133.658,229.112a.268.268,0,1,1,0-.532h12.729a.268.268,0,1,1,0,.532Z" transform="translate(-71.247 -133.669)" fill="#abd0dd"/>
        <path id="Path_234" data-name="Path 234" d="M133.7,235.756a.268.268,0,0,1,0-.536h12.729a.268.268,0,0,1,0,.536Z" transform="translate(-71.285 -137.552)" fill="#abd0dd"/>
        <path id="Path_235" data-name="Path 235" d="M133.7,242.4a.268.268,0,0,1,0-.536h5.445a.268.268,0,0,1,0,.536Z" transform="translate(-71.285 -141.434)" fill="#abd0dd"/>
        <path id="Path_236" data-name="Path 236" d="M216.85,209.183a.317.317,0,0,1-.293-.123.245.245,0,0,1,0-.289.317.317,0,0,1,.293-.123h12.724a.268.268,0,0,1,0,.536Z" transform="translate(-115.669 -122.012)" fill="#abd0dd"/>
        <path id="Path_237" data-name="Path 237" d="M216.85,215.823a.317.317,0,0,1-.293-.123.245.245,0,0,1,0-.289.317.317,0,0,1,.293-.123h12.724a.268.268,0,0,1,0,.536Z" transform="translate(-115.669 -125.894)" fill="#abd0dd"/>
        <path id="Path_238" data-name="Path 238" d="M216.9,222.472a.268.268,0,1,1,0-.531h12.724a.268.268,0,1,1,0,.531Z" transform="translate(-115.717 -129.786)" fill="#abd0dd"/>
        <path id="Path_239" data-name="Path 239" d="M216.9,229.112a.268.268,0,1,1,0-.532h12.724a.268.268,0,1,1,0,.532Z" transform="translate(-115.717 -133.669)" fill="#abd0dd"/>
        <path id="Path_240" data-name="Path 240" d="M216.85,235.753a.317.317,0,0,1-.293-.123.245.245,0,0,1,0-.289.317.317,0,0,1,.293-.123h12.724a.268.268,0,0,1,0,.536Z" transform="translate(-115.669 -137.549)" fill="#abd0dd"/>
        <path id="Path_241" data-name="Path 241" d="M216.85,242.393a.317.317,0,0,1-.293-.123.245.245,0,0,1,0-.289.317.317,0,0,1,.293-.123h5.44a.317.317,0,0,1,.293.123.245.245,0,0,1,0,.289.317.317,0,0,1-.293.123Z" transform="translate(-115.669 -141.431)" fill="#abd0dd"/>
        <rect id="Rectangle_12" data-name="Rectangle 12" width="19.17" height="17.091" rx="5.09" transform="translate(117.901 85.332)" fill="#092b96"/>
        <path id="Path_242" data-name="Path 242" d="M300.926,209.186a.268.268,0,0,1,0-.536h12.729a.268.268,0,0,1,0,.536Z" transform="translate(-160.626 -122.014)" fill="#abd0dd"/>
        <path id="Path_243" data-name="Path 243" d="M300.926,215.826a.268.268,0,0,1,0-.536h12.729a.268.268,0,0,1,0,.536Z" transform="translate(-160.626 -125.897)" fill="#abd0dd"/>
        <path id="Path_244" data-name="Path 244" d="M300.888,222.472a.268.268,0,1,1,0-.531h12.729a.267.267,0,1,1,0,.531Z" transform="translate(-160.589 -129.786)" fill="#abd0dd"/>
        <path id="Path_245" data-name="Path 245" d="M300.888,229.112a.268.268,0,1,1,0-.532h12.729a.268.268,0,1,1,0,.532Z" transform="translate(-160.589 -133.669)" fill="#abd0dd"/>
        <path id="Path_246" data-name="Path 246" d="M300.926,235.756a.268.268,0,0,1,0-.536h12.729a.268.268,0,0,1,0,.536Z" transform="translate(-160.626 -137.552)" fill="#abd0dd"/>
        <path id="Path_247" data-name="Path 247" d="M300.926,242.4a.268.268,0,0,1,0-.536h5.445a.268.268,0,0,1,0,.536Z" transform="translate(-160.626 -141.434)" fill="#abd0dd"/>
        <path id="Path_248" data-name="Path 248" d="M358.722,124.05h-3.749a.393.393,0,0,0-.263.095.311.311,0,0,0-.109.233h0a.354.354,0,0,0,.373.332h3.749a.354.354,0,0,0,.373-.332h0a.311.311,0,0,0-.109-.233A.393.393,0,0,0,358.722,124.05Z" transform="translate(-189.443 -72.544)" fill="#379cf7" fill-rule="evenodd"/>
        <path id="Path_249" data-name="Path 249" d="M358.722,127.84h-3.749a.354.354,0,0,0-.373.332h0a.354.354,0,0,0,.373.332h3.749a.354.354,0,0,0,.373-.332h0A.354.354,0,0,0,358.722,127.84Z" transform="translate(-189.443 -74.76)" fill="#379cf7" fill-rule="evenodd"/>
        <path id="Path_250" data-name="Path 250" d="M358.722,131.57h-3.749a.354.354,0,0,0-.373.332h0a.311.311,0,0,0,.109.233.393.393,0,0,0,.263.095h3.749a.393.393,0,0,0,.263-.095.311.311,0,0,0,.109-.233h0A.354.354,0,0,0,358.722,131.57Z" transform="translate(-189.443 -76.941)" fill="#379cf7" fill-rule="evenodd"/>
        <path id="Path_251" data-name="Path 251" d="M69.457,126.08a1.665,1.665,0,1,1-1.653-1.47,1.57,1.57,0,0,1,1.653,1.47Z" transform="translate(-35.34 -72.871)" fill="#379cf7"/>
        <path id="Path_252" data-name="Path 252" d="M88.6,126.08a1.482,1.482,0,0,1-1.019,1.365,1.8,1.8,0,0,1-1.8-.319,1.36,1.36,0,0,1-.358-1.608,1.668,1.668,0,0,1,1.531-.908A1.567,1.567,0,0,1,88.6,126.08Z" transform="translate(-45.566 -72.871)" fill="#092b96"/>
        <path id="Path_253" data-name="Path 253" d="M108.207,126.08a1.482,1.482,0,0,1-1.019,1.365,1.8,1.8,0,0,1-1.8-.319,1.36,1.36,0,0,1-.358-1.608,1.668,1.668,0,0,1,1.531-.908A1.572,1.572,0,0,1,108.207,126.08Z" transform="translate(-56.042 -72.871)" fill="#1d88d8"/>
        <path id="Path_254" data-name="Path 254" d="M188.3,222.035l-4.192-5.348a1.239,1.239,0,0,0-1.886,0l-4.215,5.348a.933.933,0,0,0-.082,1.059,1.173,1.173,0,0,0,1.013.557h8.426a1.174,1.174,0,0,0,1.017-.555A.933.933,0,0,0,188.3,222.035Z" transform="translate(-94.989 -126.46)" fill="#092b96"/>
        <ellipse id="Ellipse_1" data-name="Ellipse 1" cx="4.956" cy="4.418" rx="4.956" ry="4.418" transform="translate(122.428 90.099)" fill="#1d88d8"/>
        <path id="Path_255" data-name="Path 255" d="M207.511,273.02c0-2.313-43.315-4.19-96.723-4.19s-96.728,1.877-96.728,4.19,43.287,4.186,96.728,4.186S207.511,275.333,207.511,273.02Z" transform="translate(-7.511 -157.205)" fill="#ccf2ff"/>
        <path id="Path_256" data-name="Path 256" d="M182.665,84.558c-.163-1-.764-3.177-2.86-2.421-4.085-1.408-5.91.37-6.2,2.736-.363,2.973-2.236,4.152-1.542,5.012a9.516,9.516,0,0,0,6.311,2.678,8.178,8.178,0,0,0,6.181-3.16C185.152,88.5,183.131,87.518,182.665,84.558Z" transform="translate(-91.843 -47.742)" fill="#092b96" fill-rule="evenodd"/>
        <path id="Path_257" data-name="Path 257" d="M182.243,111.635c-1.462-2.375-7.21-7.757-7.848-7.952a34.751,34.751,0,0,0-6.334-.918q-2.09-.166-4.192-.133h-1.225a36.863,36.863,0,0,0-9.1,1.117c-.643.2-6.586,5.489-8.048,7.865a1.84,1.84,0,0,0-.074,1.819l6.264,11.211,3.125-.594-2.469-9.642a2.012,2.012,0,0,1,.7-2.026l3.973-4.2h13.651l4.024,4.177a2.01,2.01,0,0,1,.694,2.051l-2.473,9.654,3.176.415,6.213-11A1.84,1.84,0,0,0,182.243,111.635Z" transform="translate(-77.583 -60.016)" fill="#379cf7" fill-rule="evenodd"/>
        <path id="Path_258" data-name="Path 258" d="M162.188,154.35l1.355,1.046a.224.224,0,0,1,.075.248.263.263,0,0,1-.219.167l-.573.037.377.9c.391.938-1.8,2.371-2.7.519l-.932-2.433Z" transform="translate(-85.249 -90.262)" fill="#ffa683" fill-rule="evenodd"/>
        <path id="Path_259" data-name="Path 259" d="M203.765,154.33l-1.4,1.055a.227.227,0,0,0-.068.248.268.268,0,0,0,.217.167l.568.054-.377.9c-.391.938,1.8,2.371,2.7.519l.969-2.624Z" transform="translate(-108.07 -90.25)" fill="#ffa683" fill-rule="evenodd"/>
        <path id="Path_260" data-name="Path 260" d="M184.87,89.812l.051,2.259a2.9,2.9,0,0,1-1.015,2.234c-.112.087-.224.187-.335.287a3.353,3.353,0,0,1-4.192.075l-.34-.274a2.9,2.9,0,0,1-1.127-2.188l-.051-2.263s3.568-.029,4.932-1.541A3.282,3.282,0,0,0,184.87,89.812Z" transform="translate(-95.021 -51.697)" fill="#ffa683" fill-rule="evenodd"/>
        <path id="Path_261" data-name="Path 261" d="M184.87,89.818l.051,2.259a2.9,2.9,0,0,1-1.015,2.234c-.112.087-.224.187-.335.287a3.353,3.353,0,0,1-4.192.075l-.34-.274a2.9,2.9,0,0,1-1.127-2.188l-.051-2.263s3.54-.029,4.9-1.536A3.408,3.408,0,0,0,184.87,89.818Z" transform="translate(-95.021 -51.703)" fill="#ffa683" fill-rule="evenodd"/>
        <path id="Path_262" data-name="Path 262" d="M177.536,96.4a.919.919,0,0,0-.15-1.278,1.222,1.222,0,0,0-1.439-.084.635.635,0,0,0-.21.2.915.915,0,0,0,.141,1.286,1.217,1.217,0,0,0,1.448.071A.623.623,0,0,0,177.536,96.4Z" transform="translate(-93.779 -55.463)" fill="#ffa683" fill-rule="evenodd"/>
        <path id="Path_263" data-name="Path 263" d="M192.564,96.085a.909.909,0,0,0-.106-1.256,1.21,1.21,0,0,0-1.4-.144.787.787,0,0,0-.331.3.918.918,0,0,0,.222,1.245,1.219,1.219,0,0,0,1.413.047A.619.619,0,0,0,192.564,96.085Z" transform="translate(-101.812 -55.279)" fill="#ffa683" fill-rule="evenodd"/>
        <path id="Path_264" data-name="Path 264" d="M185.24,101.226a1.737,1.737,0,0,0-.967-1.611,2.2,2.2,0,0,0-2.049,0,1.737,1.737,0,0,0-.967,1.611,1.991,1.991,0,1,0,3.982,0Z" transform="translate(-96.835 -58.108)" fill="#ffa683" fill-rule="evenodd"/>
        <path id="Path_265" data-name="Path 265" d="M181.28,103.627v.083a3.222,3.222,0,0,0,2.045.992,2.977,2.977,0,0,0,1.938-.992v-.1A3.364,3.364,0,0,1,181.28,103.627Z" transform="translate(-96.848 -60.591)" fill="#ef7f5e" fill-rule="evenodd"/>
        <path id="Path_266" data-name="Path 266" d="M160.951,130.2l-2.473-9.642a2.012,2.012,0,0,1,.7-2.026l3.973-4.2s.88-1.345.442-1.171-6.292,4.7-6.851,5.788c-.41.83,1.91,8.081,3.037,11.477Z" transform="translate(-83.715 -66.165)" fill="#1d88d8"/>
        <path id="Path_267" data-name="Path 267" d="M207.481,105.041l-.331-.091c1.141,1.192,8.039,8.517,7.275,10.036-.689,1.374-4.993,8.33-6.32,10.688l1.085.133,6.213-11a1.84,1.84,0,0,0-.075-1.819C213.866,110.618,208.119,105.237,207.481,105.041Z" transform="translate(-110.669 -61.375)" fill="#1d88d8"/>
        <path id="Path_268" data-name="Path 268" d="M84.44,229.465l.354.893,5.282-.482s5.8,6.623,8.235,8.869c.252.233.536.515.824.83,1.542-3.322,4.658-13.79,1.486-14.621C95.944,223.722,84.44,229.465,84.44,229.465Z" transform="translate(-45.112 -131.448)" fill="#092b96"/>
        <path id="Path_269" data-name="Path 269" d="M107.16,241.459c1.253,1.341,2.469,2.616,3.288,3.384.252.233.536.515.824.83a36.9,36.9,0,0,0,2.795-10.464C113.029,235.347,109.47,238.993,107.16,241.459Z" transform="translate(-57.25 -137.546)" fill="#052575"/>
        <path id="Path_270" data-name="Path 270" d="M72.964,237.05s5.8,6.623,8.239,8.869,7.918,8.923-6.9,8.409-21.583-2.541-21.583-2.541l-.307-2.873,15.533-1.47s-9.7-1.009-8.514-9.168Z" transform="translate(-28 -138.622)" fill="#173acc"/>
        <path id="Path_271" data-name="Path 271" d="M97.1,238.925l.265-.415c1.5,1.69,5.724,6.415,7.694,8.255a10.893,10.893,0,0,1,2.86,4c-1.136-2.35-4.625-4.568-7.6-7.138C96.473,240.3,97.1,238.925,97.1,238.925Z" transform="translate(-51.854 -139.475)" fill="#2b56e0"/>
        <path id="Path_272" data-name="Path 272" d="M43.649,267.06h-.135c-.531.037-2,.108-2.3.7-.345.685-.466,4.082,2.031,4.181s-.466-1.661.387-2.4Z" transform="translate(-21.921 -156.17)" fill="#092b96"/>
        <path id="Path_273" data-name="Path 273" d="M52.41,263.55l15.533-1.47s1.686.648,6.9,2.491c3.167,1.121,6.465,2.263,8.281,3.006-1.323.959-4,1.553-8.849,1.383-14.844-.511-21.583-2.541-21.583-2.541Z" transform="translate(-28 -153.258)" fill="#092b96"/>
        <path id="Path_274" data-name="Path 274" d="M49,268.493s-1.863-.7-2.874.237c-1.439,1.354-.116-2.512-.116-2.512l2.683-.6Z" transform="translate(-24.286 -155.328)" fill="#ffa683"/>
        <path id="Path_275" data-name="Path 275" d="M114.828,171.948l-4.513-3.322a.355.355,0,0,1-.112-.465,3.14,3.14,0,0,0-1.161-4.179,4.121,4.121,0,0,0-4.819.271,3.531,3.531,0,0,0-.629.706,3.1,3.1,0,0,0,.683,4.239,4.119,4.119,0,0,0,4.8.187.409.409,0,0,1,.14-.058.454.454,0,0,1,.391.071l4.518,3.322a.606.606,0,0,0,.41.112.568.568,0,0,0,.377-.179.459.459,0,0,0,.126-.369A.483.483,0,0,0,114.828,171.948Zm-5.887-3.683a2.993,2.993,0,0,1-3.883.315,2.28,2.28,0,0,1-.354-3.462,2.993,2.993,0,0,1,3.883-.316A2.284,2.284,0,0,1,108.941,168.264Z" transform="translate(-55.049 -95.514)" fill="#fff"/>
        <path id="Path_276" data-name="Path 276" d="M109.814,166.069a2.993,2.993,0,0,0-3.883.316,2.28,2.28,0,0,0,.354,3.462,2.993,2.993,0,0,0,3.883-.315A2.283,2.283,0,0,0,109.814,166.069Z" transform="translate(-56.252 -96.782)" fill="#379cf7"/>
        <path id="Path_277" data-name="Path 277" d="M120.36,178.815a1.746,1.746,0,0,0-1.239.581c-.112-.341-.312-.83-.522-.922-.317-.116-.689,2.217-.689,2.217l.224-.166-.056.079,2.2,1.013C121.678,179.894,121.357,178.935,120.36,178.815Z" transform="translate(-62.993 -104.366)" fill="#ffa683"/>
        <path id="Path_278" data-name="Path 278" d="M64.293,206.872c.466-4.032,1.09-8.338,1.933-9.5A4.307,4.307,0,0,1,67.5,196.13h0s-4.094,2.288-5.766,5.88C60.9,203.75,62.467,205.51,64.293,206.872Z" transform="translate(-32.859 -114.693)" fill="#379cf7"/>
        <path id="Path_279" data-name="Path 279" d="M87.83,186.747l-.144-1.586a2.769,2.769,0,0,0,1.514-.693,3.006,3.006,0,0,0,.093-4.057c-.932.249-2.1.079-2.138.527-.07.714-.144,1.287-.144,1.287-.759-.415-1.565-.365-1.458.544.042.361.331.947.629.992a2.07,2.07,0,0,1-1.481,2.147h0v.561Z" transform="translate(-45.251 -105.501)" fill="#ffa683"/>
        <path id="Path_280" data-name="Path 280" d="M78.2,176.639c.75-2.757,1.961-4.31,5.258-4.381,3-.066,3.4,2.163,3.4,2.163-.1,1.927-3.167,1.017-3.26,1.748s-.144,1.287-.144,1.287c-.764-.415-1.565-.37-1.462.544.047.365.335.947.633.992a2.07,2.07,0,0,1-1.481,2.147S77.455,179.383,78.2,176.639Z" transform="translate(-41.727 -100.733)" fill="#092b96"/>
        <path id="Path_281" data-name="Path 281" d="M78.206,176.639c.75-2.757,1.961-4.31,5.258-4.381a3.181,3.181,0,0,1,3.181,1.578,4.486,4.486,0,0,0-6.679.893c-1.742,2.491-.643,5.494,2.576,5.166a2.108,2.108,0,0,1-1.365,1.246S77.456,179.383,78.206,176.639Z" transform="translate(-41.728 -100.733)" fill="#09256b"/>
        <path id="Path_282" data-name="Path 282" d="M88.955,191.713c-.284-.158-.605-.963-.605-.963a2.762,2.762,0,0,0,1.29.457l.14,1.586-.7-.066C89.119,192.232,89.077,191.78,88.955,191.713Z" transform="translate(-47.201 -111.547)" fill="#ef7f5e"/>
        <path id="Path_283" data-name="Path 283" d="M66,207.074s.932-15.015,2.608-17.336a3.5,3.5,0,0,1,2.357-1.661,26.038,26.038,0,0,1,3.726-.129,45.419,45.419,0,0,1,6.055.876c1.225.444,6.1,4.231,6.1,4.231l3.26-9.966,2.7.9s-2.636,14.558-4.746,14.591-7.485-2.653-7.485-2.653-.405,9.156,1.588,10.829C82.162,206.754,73.732,210.222,66,207.074Z" transform="translate(-35.26 -107.068)" fill="#379cf7"/>
        <path id="Path_284" data-name="Path 284" d="M67.989,196.891a14.473,14.473,0,0,1,1.262-.831h0a4.307,4.307,0,0,0-1.276,1.246c-.843,1.159-1.49,5.465-1.933,9.5a12.284,12.284,0,0,1-1.262-1.059C64.976,203.36,65.66,199.124,67.989,196.891Z" transform="translate(-34.608 -114.652)" fill="#147ac6"/>
        <path id="Path_285" data-name="Path 285" d="M90.78,211.161c-.289-.511,3.023,1.121,3.023,1.121s-.405,9.156,1.588,10.829c0,0-.592.241-1.593.54-1.15-3.065-.89-7.2-1.1-8.633A9.175,9.175,0,0,0,90.78,211.161Z" transform="translate(-48.489 -123.425)" fill="#63b8f7"/>
        <path id="Path_286" data-name="Path 286" d="M330.538,274.46a2.352,2.352,0,0,1-.033.465,1.294,1.294,0,0,1-.815.864.692.692,0,0,1,.2.046,3.029,3.029,0,0,0,2.552.116.358.358,0,0,1,.228,0c-.042-.415-.135-1.038-.21-1.482Z" transform="translate(-176.135 -160.498)" fill="#ffa683"/>
        <path id="Path_287" data-name="Path 287" d="M328.487,279.161v-1.1a.274.274,0,0,0-.146-.226.345.345,0,0,0-.292-.019,3.023,3.023,0,0,1-2.557-.116c-.768-.3-3.26.943-3.88,1.3h0a.326.326,0,0,0-.154.39.386.386,0,0,0,.377.241h6.087A.553.553,0,0,0,328.487,279.161Z" transform="translate(-171.728 -162.367)" fill="#2b56e0"/>
        <path id="Path_288" data-name="Path 288" d="M352.188,273.66a2.067,2.067,0,0,1-.037.465,1.293,1.293,0,0,1-.81.864.634.634,0,0,1,.2.042,3.013,3.013,0,0,0,2.552.12.38.38,0,0,1,.224,0c-.037-.415-.13-1.034-.21-1.478Z" transform="translate(-187.702 -160.03)" fill="#ffa683"/>
        <path id="Path_289" data-name="Path 289" d="M350.126,278.357c.023-.37,0-.785,0-1.1a.278.278,0,0,0-.146-.226.35.35,0,0,0-.292-.023,3.008,3.008,0,0,1-2.557-.116c-.773-.3-3.26.943-3.884,1.308h0a.33.33,0,0,0-.15.391.389.389,0,0,0,.374.244h6.092A.552.552,0,0,0,350.126,278.357Z" transform="translate(-183.288 -161.895)" fill="#2b56e0"/>
        <path id="Path_290" data-name="Path 290" d="M343.614,197.147a46.4,46.4,0,0,1,.61,5.141c0,4.439-2.534,10.381-2.534,10.381l4.224,16.016-3.577.1-7.918-15.671.573-16.763Z" transform="translate(-178.662 -114.822)" fill="#092b96"/>
        <path id="Path_291" data-name="Path 291" d="M326.459,194.159a58.284,58.284,0,0,1-1.751,9.065c-1,3.214-8.207,8.093-8.207,8.093l4.681,15.6h-2.92l-10.456-15.16a2.328,2.328,0,0,1,.116-1.989l9.986-16.992Z" transform="translate(-164.353 -112.734)" fill="#2b56e0"/>
        <path id="Path_292" data-name="Path 292" d="M290.759,189.35H287s.186,2,4.089,2Z" transform="translate(-153.328 -110.729)" fill="#ffa683"/>
        <path id="Path_293" data-name="Path 293" d="M332.712,144.338a3.848,3.848,0,0,0,.061-.876c-.112-1.034-.806-1.217-1.607-.577a3.041,3.041,0,0,1-1.127-1.2c-.233-.478-1.234-.112-2.012-.249a3.7,3.7,0,0,0,1.365,4.41,2.945,2.945,0,0,0,1.8.415l.191,2.583,3.516-.83-.051-1.52a2.2,2.2,0,0,1-1.642-.622A1.713,1.713,0,0,1,332.712,144.338Z" transform="translate(-175.105 -82.704)" fill="#ffa683"/>
        <path id="Path_294" data-name="Path 294" d="M319.22,230.979c-.745-1.121-9.925-15.073-8.574-16.776,1.4-1.773,7.708-12.781,7.708-12.781l-1.49-1.7-1.164.855-7.8,13.254a2.328,2.328,0,0,0-.116,1.989l10.466,15.16Z" transform="translate(-164.342 -116.793)" fill="#092b96" opacity="0.4"/>
        <path id="Path_295" data-name="Path 295" d="M325.529,161.056c.191-3.189,5.757-3.438,6.353-3.446a2.939,2.939,0,0,1,2.054.872,6.116,6.116,0,0,1,2.045,5.543c-1.4,6.988,1.49,11.444,1.863,13.636-5.175,1.869-16.134-.448-16.134-.448l3.344-11.357Z" transform="translate(-171.872 -92.168)" fill="#379cf7"/>
        <path id="Path_296" data-name="Path 296" d="M307.11,169.6s3.4-11.016,7.75-10.381c4.825.7-3.093,14.371-3.093,14.371l-16.409.295L295,171.572Z" transform="translate(-157.602 -93.096)" fill="#379cf7"/>
        <path id="Path_297" data-name="Path 297" d="M328.491,175.095c-.806,2.168-3.479,1.993-3.479,1.993l-1.49,3.26c-1.122-.187-1.812-.332-1.812-.332l1.318-4.505,2.99-.054s5.505-9.513,4.546-13.076C330.736,162.687,332.04,165.544,328.491,175.095Z" transform="translate(-171.872 -94.958)" fill="#147ac6"/>
        <path id="Path_298" data-name="Path 298" d="M336.389,149.962c-5.552-.253-3.675-9.891-3.614-11.755.037-1.038-.787-1.495-1.593-.855a3.047,3.047,0,0,1-1.123-1.2c-.238-.477-1.476-.112-2.259-.249,1.588-5.7,9.087-5.431,12.4,2.28C343.063,144.851,345.257,150.369,336.389,149.962Z" transform="translate(-175.125 -77.171)" fill="#092b96"/>
        <path id="Path_299" data-name="Path 299" d="M335.6,152.7a11.175,11.175,0,0,0,.731-1.163,4.654,4.654,0,0,1-1.085.59l-.121.05.191,2.583.4-.1A10.132,10.132,0,0,1,335.6,152.7Z" transform="translate(-179.036 -88.619)" fill="#ef7f5e"/>
        <path id="Path_300" data-name="Path 300" d="M310.207,164.868a10.222,10.222,0,0,1,3.521-5.4c-3.787,1.138-6.618,10.29-6.618,10.29L295,171.732l13.54-.718S309.378,168.34,310.207,164.868Z" transform="translate(-157.602 -93.256)" fill="#63b8f7"/>
        <path id="Path_301" data-name="Path 301" d="M333.864,133.411c4.033,1.615,6.348,7.474,5.24,16.452,5.617-.83,3.619-5.813,1.1-11.685-3.316-7.711-10.815-7.981-12.4-2.28C327.8,135.9,329.8,131.787,333.864,133.411Z" transform="translate(-175.125 -77.171)" fill="#052575"/>
        <path id="Path_302" data-name="Path 302" d="M404.578,201.953c-.266,1.271-4.946,8.624-7.839,13.549a12.473,12.473,0,0,0-1.462,8.923h.554c-.331-1.7-.466-1.441,0-4.094.526-2.907,5.631-4.937,8.849-10.547S404.839,200.682,404.578,201.953Z" transform="translate(-211.029 -117.946)" fill="#379cf7"/>
        <path id="Path_303" data-name="Path 303" d="M390.008,199.869c.163,1.4.293,2.359.349,3.019h.284c.093-2.367.256-6.457.144-9.185-.158-4.024,1.085-5.685,1.784-12.457S391.3,164.86,391.3,164.86s-4.727,8.616-3.079,18.2S389.291,193.715,390.008,199.869Z" transform="translate(-207.218 -96.408)" fill="#379cf7"/>
        <path id="Path_304" data-name="Path 304" d="M380.1,217.263a31.566,31.566,0,0,0,.5,4.372h.3c-.051-.7-.107-1.993-.168-4.285-.182-6.947-.978-6.868-2.329-11.515s-3.517-6.577-5.771-8.915c0,0-2.329,3.322.955,8.3s4.583,5.307,5.361,7.748S380.051,215.083,380.1,217.263Z" transform="translate(-198.648 -115.155)" fill="#379cf7"/>
        <path id="Path_305" data-name="Path 305" d="M375.2,227.828h.326a5.068,5.068,0,0,0-.7-3.7c-1.5-2.259-2.659-5.24-4.97-7.209-3.153-2.691-5.337-9.413-5.337-9.413s-1.653,5.971,1.551,10.7a16.34,16.34,0,0,0,7.3,6.4,3.427,3.427,0,0,1,1.835,3.21Z" transform="translate(-194.51 -121.348)" fill="#379cf7"/>
        <path id="Path_306" data-name="Path 306" d="M392.717,202.888h.051l.247-.922c.093-2.408.21-5.863.112-8.263-.158-4.024,1.085-5.685,1.784-12.457s-1.272-16.385-1.272-16.385-1.8,13.379-1.3,19.516C392.8,190.044,392.731,201.243,392.717,202.888Z" transform="translate(-209.559 -96.408)" fill="#1d88d8"/>
        <path id="Path_307" data-name="Path 307" d="M405.078,201.705c.047,1.806-.116,7.948-4.168,11.211-4.7,3.783-6.2,7.96-4.8,11.51h.042c-.331-1.7-.466-1.441,0-4.094.526-2.907,5.631-4.937,8.849-10.547C407.858,204.8,405.763,201.485,405.078,201.705Z" transform="translate(-211.352 -117.947)" fill="#1d88d8"/>
        <path id="Path_308" data-name="Path 308" d="M381.7,221.635h.158c-.051-.7-.107-1.993-.168-4.285-.182-6.947-.978-6.868-2.329-11.515s-3.516-6.577-5.771-8.915a16,16,0,0,0,3.26,9.056c3.358,4.439,4.294,7.711,4.387,8.94C381.294,215.93,381.582,220.177,381.7,221.635Z" transform="translate(-199.589 -115.155)" fill="#1d88d8"/>
        <path id="Path_309" data-name="Path 309" d="M375.754,227.828h.256a5.068,5.068,0,0,0-.7-3.7c-1.495-2.259-2.659-5.24-4.97-7.209-3.153-2.691-5.338-9.413-5.338-9.413s.1,7.611,2.59,9.829,2.427,1.578,4.355,3.77a21.858,21.858,0,0,1,3.26,4.152A5.464,5.464,0,0,1,375.754,227.828Z" transform="translate(-194.999 -121.348)" fill="#1d88d8"/>
        <path id="Path_310" data-name="Path 310" d="M389.6,253.49h-8.719a1.474,1.474,0,0,0-1.1.449,1.148,1.148,0,0,0-.293,1.05l1.709,7.968a1.388,1.388,0,0,0,1.4,1.03h5.3a1.365,1.365,0,0,0,1.4-1.03L391,254.989a1.148,1.148,0,0,0-.293-1.05,1.474,1.474,0,0,0-1.1-.449Z" transform="translate(-202.723 -148.235)" fill="#d8e8ef"/>
        <path id="Path_311" data-name="Path 311" d="M391.037,254.449a1.376,1.376,0,0,0-1.374-.959h-8.719a1.4,1.4,0,0,0-1.374.959Z" transform="translate(-202.783 -148.235)" fill="#abd0dd"/>
        <path id="Path_312" data-name="Path 312" d="M397.062,253.49h-1.933a1.474,1.474,0,0,1,1.1.449,1.148,1.148,0,0,1,.293,1.05l-1.709,7.968a1.365,1.365,0,0,1-1.4,1.03h1.933a1.365,1.365,0,0,0,1.4-1.03l1.709-7.968a1.148,1.148,0,0,0-.293-1.05,1.474,1.474,0,0,0-1.1-.449Z" transform="translate(-210.183 -148.235)" fill="#abd0dd"/>
      </g>
    </g>
  </g>
</svg>
