<svg id="shower" xmlns="http://www.w3.org/2000/svg" width="30" height="30" viewBox="0 0 30 30">
  <g id="_14" data-name="14">
    <path id="Path_314" data-name="Path 314" d="M23.942,2.935H23.3a2.393,2.393,0,0,1,1.588-.978.913.913,0,0,1,.752,1v8.182h1.7V2.955A2.946,2.946,0,0,0,26.685.919,2.5,2.5,0,0,0,24.887,0a3.973,3.973,0,0,0-3.215,2.18l-.431.845h-.817a11.045,11.045,0,0,0-.206,3.025l3.858-.042a12.564,12.564,0,0,0-.167-3.1ZM22.758,8.985c.058,0,.1.063.141.154a.933.933,0,0,1,0,.245,1.024,1.024,0,0,1,0,.266c-.039.091-.084.133-.141.133s-.084-.042-.122-.133a.758.758,0,0,1,0-.266.713.713,0,0,1,0-.245C22.675,9.048,22.713,8.985,22.758,8.985Zm-1.723,0c.064,0,.1.063.129.154a.874.874,0,0,1,.039.245.913.913,0,0,1-.039.266.124.124,0,0,1-.129.133.155.155,0,0,1-.122-.133,1.024,1.024,0,0,1,0-.266.933.933,0,0,1,0-.245A.161.161,0,0,1,21.035,8.985Zm.862,0c.064,0,.1.063.122.154a.857.857,0,0,1,.045.245.881.881,0,0,1-.045.266.119.119,0,0,1-.122.133c-.064,0-.084-.042-.122-.133a1.024,1.024,0,0,1,0-.266.933.933,0,0,1,0-.245C21.813,9.048,21.858,8.985,21.9,8.985Zm.862-1.09c.058,0,.1.063.141.154a.963.963,0,0,1,0,.245,1.024,1.024,0,0,1,0,.266c-.039.091-.084.133-.141.133s-.084-.042-.122-.133a.758.758,0,0,1,0-.266.758.758,0,0,1,0-.245C22.675,7.958,22.713,7.9,22.758,7.9Zm-1.723,0c.064,0,.1.063.129.154a.862.862,0,0,1,0,.51.124.124,0,0,1-.129.133.155.155,0,0,1-.122-.133,1.024,1.024,0,0,1,0-.266.963.963,0,0,1,0-.245A.161.161,0,0,1,21.035,7.9Zm.862,0c.064,0,.1.063.122.154a.91.91,0,0,1,.045.245.881.881,0,0,1-.045.266.119.119,0,0,1-.122.133c-.064,0-.084-.042-.122-.133a1.024,1.024,0,0,1,0-.266.964.964,0,0,1,0-.245C21.813,7.958,21.858,7.9,21.9,7.9Zm.862-1.069c.058,0,.1.042.141.133a1.054,1.054,0,0,1,0,.266.933.933,0,0,1,0,.245c-.039.091-.084.161-.141.161s-.084-.07-.122-.161a.713.713,0,0,1,0-.245.8.8,0,0,1,0-.266C22.675,6.868,22.713,6.826,22.758,6.826Zm-1.723,0c.064,0,.1.042.129.133a.95.95,0,0,1,.039.266.874.874,0,0,1-.039.245.151.151,0,0,1-.129.161c-.064,0-.1-.07-.122-.161a.933.933,0,0,1,0-.245,1.054,1.054,0,0,1,0-.266.155.155,0,0,1,.122-.133Zm.862,0c.064,0,.1.042.122.133a.926.926,0,0,1,.045.266.857.857,0,0,1-.045.245.146.146,0,0,1-.122.161c-.064,0-.084-.07-.122-.161a.933.933,0,0,1,0-.245,1.054,1.054,0,0,1,0-.266C21.813,6.868,21.858,6.826,21.9,6.826ZM8.206,26.816,7.183,29.771c-.1.266-.592.314-1.106.07h0c-.534-.245-.855-.7-.778-.936l.823-2.355c-1.556-.405-2.83-1.558-3.55-4.6C2.225,19.948,0,15.762,0,15.476V14.344a1.083,1.083,0,0,1,.984-1.139H29.022A1.084,1.084,0,0,1,30,14.344v1.132c0,.845-2.251,5.338-2.534,6.756A6.1,6.1,0,0,1,24.6,26.215l.939,2.69c.1.266-.244.7-.752.936h0c-.534.245-1.022.2-1.125-.07l-1.022-2.976a4.38,4.38,0,0,1-.514,0H8.206Z" transform="translate(0 0)" fill="#34626c" fill-rule="evenodd"/>
  </g>
</svg>
