<svg id="table" xmlns="http://www.w3.org/2000/svg" width="23.696" height="27" viewBox="0 0 23.696 27">
  <g id="_14" data-name="14">
    <path id="Path_318" data-name="Path 318" d="M.12,5.955,4.441.1,19.111,0l4.46,5.994c.048.9.077,1.787.125,2.671l-.917,1.29h-.442c.017.165.027.331.029.5V24.923a2.56,2.56,0,0,1-.427,1.477A1.273,1.273,0,0,1,20.9,27h0a1.27,1.27,0,0,1-1.023-.6,2.57,2.57,0,0,1-.442-1.477V10.452a2.361,2.361,0,0,1,.048-.5H4.119a2.361,2.361,0,0,1,.048.5V24.923A2.57,2.57,0,0,1,3.725,26.4,1.277,1.277,0,0,1,2.7,27h0a1.266,1.266,0,0,1-1.037-.6,2.672,2.672,0,0,1-.427-1.477V10.452c0-.166.011-.332.029-.5H.917L0,8.664Zm4.493,5.161H6.433v5.806a1.668,1.668,0,0,1-.259.942.873.873,0,0,1-.658.394h0a.873.873,0,0,1-.658-.394,1.678,1.678,0,0,1-.274-.942V11.116Zm12.53,0h1.815v5.806a1.678,1.678,0,0,1-.274.942.831.831,0,0,1-.643.394h0a.873.873,0,0,1-.658-.394,1.678,1.678,0,0,1-.274-.942V11.116Z" fill="#34626c" fill-rule="evenodd"/>
  </g>
</svg>
